<?xml version="1.0" encoding="utf-8"?>
<!-- Generator: Adobe Illustrator 25.0.0, SVG Export Plug-In . SVG Version: 6.00 Build 0)  -->
<svg version="1.1" id="Layer_1" focusable="false" xmlns="http://www.w3.org/2000/svg" xmlns:xlink="http://www.w3.org/1999/xlink"
	 x="0px" y="0px" viewBox="0 0 448 512" style="enable-background:new 0 0 448 512;" xml:space="preserve">
<path fill="#333333" d="M102.1,479H11.2V179.9h90.9V479z M56.6,139.1C27.6,139.1,4,114.5,4,84.8C4,55.1,27.6,31,56.6,31c29.1,0,52.6,24.1,52.6,53.8
	C109.3,114.5,85.7,139.1,56.6,139.1z M442.2,479h-90.7V333.4c0-34.7-0.7-79.2-47.2-79.2c-47.2,0-54.5,37.7-54.5,76.7V479H159V179.9
	h87.2v40.8h1.3c12.1-23.5,41.8-48.3,86-48.3c92,0,108.9,61.9,108.9,142.3L442.2,479L442.2,479z"/>
</svg>
