<svg xmlns="http://www.w3.org/2000/svg" viewBox="0 0 495.13 120"><defs><style>.cls-1,.cls-3{fill:#fff;}.cls-1,.cls-2{stroke:#999;stroke-miterlimit:10;stroke-width:5px;}.cls-2,.cls-4{fill:#ff8a16;}</style></defs><g id="Layer_2" data-name="Layer 2"><g id="logo"><polygon id="bg-white" class="cls-1" points="447.5 117.5 2.5 117.5 2.5 2.5 491.5 2.5 447.5 117.5"/><polygon id="bg-orange" class="cls-2" points="188.5 100 21.5 100 21.5 20 220.5 20 188.5 100"/><g id="name-text"><path class="cls-3" d="M52.67,85.54h-6V39.45H30.41V34.14H68.94v5.31H52.67Z"/><path class="cls-3" d="M121.29,59.77q0,12.34-6.24,19.41T97.7,86.25q-11.36,0-17.52-7T74,59.7q0-12.54,6.18-19.46t17.58-6.9q11.08,0,17.3,7T121.29,59.77Zm-40.95,0q0,10.44,4.44,15.84T97.7,81q8.55,0,12.9-5.38T115,59.77q0-10.37-4.34-15.73T97.77,38.68q-8.53,0-13,5.4T80.34,59.77Z"/><path class="cls-3" d="M155.5,85.54,138.06,40h-.28q.5,5.42.49,12.87V85.54h-5.52V34.14h9L158,76.54h.28l16.42-42.4h8.93v51.4h-6V52.43q0-5.7.5-12.38h-.29L160.32,85.54Z"/><path class="cls-4" d="M248.77,85.54l-6.4-16.35h-20.6l-6.33,16.35h-6.05l20.32-51.61h5L255,85.54Zm-8.26-21.72-6-15.93q-1.16-3-2.39-7.42a67.35,67.35,0,0,1-2.21,7.42l-6.05,15.93Z"/><path class="cls-4" d="M262,85.54V34.14h6v46h22.67v5.41Z"/><path class="cls-4" d="M299.39,85.54V34.14h6v46h22.68v5.41Z"/><path class="cls-4" d="M369.07,85.54l-6.4-16.35h-20.6l-6.32,16.35H329.7L350,33.93h5l20.21,51.61Zm-8.26-21.72-6-15.93q-1.15-3-2.39-7.42a65.24,65.24,0,0,1-2.21,7.42l-6.05,15.93Z"/><path class="cls-4" d="M382.33,85.54V34.14h6v51.4Z"/><path class="cls-4" d="M442.55,85.54h-6.82L407.64,42.41h-.28q.56,7.59.56,13.92V85.54H402.4V34.14h6.75l28,43h.28c0-.63-.15-2.66-.31-6.1s-.23-5.88-.18-7.36V34.14h5.59Z"/></g></g></g></svg>