<svg xmlns="http://www.w3.org/2000/svg" width="445.848" height="276.044" viewBox="0 0 445.848 276.044">
  <g id="illustration" transform="translate(0 0)">
    <circle id="Ellipse_1" data-name="Ellipse 1" cx="24.985" cy="24.985" r="24.985" transform="translate(79.111 195.061)" fill="none" stroke="#707070" stroke-width="1"/>
    <circle id="Ellipse_2" data-name="Ellipse 2" cx="24.985" cy="24.985" r="24.985" transform="translate(83.173 191.405)" fill="#d85800"/>
    <rect id="Rectangle_1" data-name="Rectangle 1" width="309.132" height="0.843" transform="translate(128.28 188.744)" fill="#3f3d56"/>
    <path id="Path_10" data-name="Path 10" d="M334.3,138.28H224.576v-2.261H174.823v2.261H64.648a7.422,7.422,0,0,0-7.422,7.422V295.946a7.422,7.422,0,0,0,7.422,7.422H334.3a7.422,7.422,0,0,0,7.422-7.422V145.7a7.422,7.422,0,0,0-7.422-7.422Z" transform="translate(-45.919 -130.414)" fill="#3f3d56" stroke="#707070" stroke-width="1"/>
    <rect id="Rectangle_2" data-name="Rectangle 2" width="264.593" height="149.257" transform="translate(21.258 20.983)" fill="#d85800"/>
    <circle id="Ellipse_3" data-name="Ellipse 3" cx="2.714" cy="2.714" r="2.714" transform="translate(150.614 11.484)" fill="#6c63ff"/>
    <path id="Path_11" data-name="Path 11" d="M239.33,199.011H50.406V49.754Z" transform="translate(-29.148 -28.771)" opacity="0.1"/>
    <circle id="Ellipse_4" data-name="Ellipse 4" cx="25.433" cy="25.433" r="25.433" transform="translate(37.225 108.204)" fill="#f2f2f2"/>
    <rect id="Rectangle_3" data-name="Rectangle 3" width="24.716" height="5.165" transform="translate(215.065 101.478)" fill="#3f3d56"/>
    <rect id="Rectangle_4" data-name="Rectangle 4" width="84.476" height="2.213" transform="translate(185.185 61.269)" fill="#3f3d56"/>
    <rect id="Rectangle_5" data-name="Rectangle 5" width="84.476" height="2.213" transform="translate(185.185 68.278)" fill="#3f3d56"/>
    <rect id="Rectangle_6" data-name="Rectangle 6" width="84.476" height="2.213" transform="translate(185.185 75.287)" fill="#3f3d56"/>
    <rect id="Rectangle_7" data-name="Rectangle 7" width="84.476" height="2.213" transform="translate(185.185 82.296)" fill="#3f3d56"/>
    <rect id="Rectangle_8" data-name="Rectangle 8" width="84.476" height="2.213" transform="translate(185.185 89.305)" fill="#3f3d56"/>
    <rect id="Rectangle_9" data-name="Rectangle 9" width="10.329" height="10.329" transform="translate(259.332 24.011)" fill="#f2f2f2"/>
    <path id="Path_12" data-name="Path 12" d="M664,198.327H651.455V185.785H664Zm-12-.545h11.452V186.33H652Z" transform="translate(-389.541 -159.192)" fill="#3f3d56"/>
    <path id="Path_13" data-name="Path 13" d="M333.645,516.9H307.822v-1.861a.369.369,0,0,0-.369-.369H298.6a.369.369,0,0,0-.369.369V516.9H292.7v-1.861a.369.369,0,0,0-.369-.369h-8.853a.369.369,0,0,0-.369.369V516.9h-5.533v-1.861a.369.369,0,0,0-.369-.369h-8.854a.369.369,0,0,0-.369.369v1.86h-5.533v-1.861a.369.369,0,0,0-.369-.369h-8.854a.369.369,0,0,0-.369.369V516.9h-5.533v-1.861a.369.369,0,0,0-.369-.369H238.1a.369.369,0,0,0-.369.369V516.9H232.2v-1.861a.369.369,0,0,0-.369-.369h-8.853a.369.369,0,0,0-.369.369V516.9h-5.533v-1.861a.369.369,0,0,0-.369-.369H147.354a.369.369,0,0,0-.369.369V516.9h-5.533v-1.861a.369.369,0,0,0-.369-.369h-8.854a.369.369,0,0,0-.369.369V516.9h-5.533v-1.861a.369.369,0,0,0-.369-.369H117.1a.369.369,0,0,0-.369.369V516.9H111.2v-1.861a.369.369,0,0,0-.369-.369H101.98a.369.369,0,0,0-.369.369V516.9H96.078v-1.861a.369.369,0,0,0-.369-.369H86.855a.369.369,0,0,0-.369.369V516.9H80.953v-1.861a.369.369,0,0,0-.369-.369H71.73a.369.369,0,0,0-.369.369V516.9H65.828v-1.861a.369.369,0,0,0-.369-.369H56.606a.369.369,0,0,0-.369.369V516.9H39.268a8.853,8.853,0,0,0-8.853,8.853v4a8.853,8.853,0,0,0,8.853,8.853H333.645a8.853,8.853,0,0,0,8.853-8.853v-4a8.853,8.853,0,0,0-8.853-8.853Z" transform="translate(-30.415 -349.377)" fill="#3f3d56"/>
    <path id="Path_14" data-name="Path 14" d="M149.638,389.376a32.052,32.052,0,1,1,32.052-32.052,32.052,32.052,0,0,1-32.052,32.052Zm0-63.26a31.208,31.208,0,1,0,31.208,31.208A31.208,31.208,0,0,0,149.638,326.115Z" transform="translate(-80.823 -239.853)" fill="#3f3d56"/>
    <rect id="Rectangle_10" data-name="Rectangle 10" width="107.542" height="0.843" transform="translate(247.209 13.724)" fill="#3f3d56"/>
    <rect id="Rectangle_11" data-name="Rectangle 11" width="273.132" height="0.843" transform="translate(171.296 236.4)" fill="#3f3d56"/>
    <rect id="Rectangle_12" data-name="Rectangle 12" width="107.542" height="0.843" transform="translate(81.257 275.2)" fill="#3f3d56"/>
    <rect id="Rectangle_13" data-name="Rectangle 13" width="12" height="12" transform="translate(198.257 231.5)" fill="#d85800"/>
    <path id="Path_15" data-name="Path 15" d="M526.754,665.067H512.415V650.728h14.339Zm-13.716-.623H526.13V651.352H513.038Z" transform="translate(-309.139 -428.052)" fill="#3f3d56"/>
    <rect id="Rectangle_14" data-name="Rectangle 14" width="12" height="12" transform="translate(335.257 9.5)" fill="#d85800"/>
    <path id="Path_16" data-name="Path 16" d="M851.754,137.067H837.415V122.728h14.339Zm-13.716-.623H851.13V123.352H838.038Z" transform="translate(-497.075 -122.728)" fill="#3f3d56"/>
    <path id="Path_18" data-name="Path 18" d="M962.763,295.2h-1V267.716a15.905,15.905,0,0,0-15.905-15.905H887.631a15.905,15.905,0,0,0-15.905,15.905V418.479a15.905,15.905,0,0,0,15.905,15.905h58.222a15.905,15.905,0,0,0,15.905-15.905V314.759h1Z" transform="translate(-516.916 -197.373)" fill="#3f3d56"/>
    <path id="Path_19" data-name="Path 19" d="M964.393,275.458V426a11.879,11.879,0,0,1-11.878,11.88h-58.5A11.878,11.878,0,0,1,882.136,426V275.458a11.877,11.877,0,0,1,11.875-11.876h7.1a5.643,5.643,0,0,0,5.225,7.773H939.69a5.642,5.642,0,0,0,5.225-7.773h7.6a11.877,11.877,0,0,1,11.878,11.876Z" transform="translate(-522.935 -204.179)" fill="#d85800"/>
    <rect id="Rectangle_16" data-name="Rectangle 16" width="17.428" height="5.165" transform="translate(391.615 158.664)" fill="#3f3d56"/>
    <rect id="Rectangle_17" data-name="Rectangle 17" width="59.566" height="2.213" transform="translate(370.545 118.455)" fill="#3f3d56"/>
    <rect id="Rectangle_18" data-name="Rectangle 18" width="59.566" height="2.213" transform="translate(370.545 125.463)" fill="#3f3d56"/>
    <rect id="Rectangle_19" data-name="Rectangle 19" width="59.566" height="2.213" transform="translate(370.545 132.473)" fill="#3f3d56"/>
    <rect id="Rectangle_20" data-name="Rectangle 20" width="59.566" height="2.213" transform="translate(370.545 139.481)" fill="#3f3d56"/>
    <rect id="Rectangle_21" data-name="Rectangle 21" width="59.566" height="2.213" transform="translate(370.545 146.49)" fill="#3f3d56"/>
    <rect id="Rectangle_22" data-name="Rectangle 22" width="10.329" height="10.329" transform="translate(392.08 89.061)" fill="#f2f2f2"/>
    <path id="Path_20" data-name="Path 20" d="M969.474,340.032v12.542h12.542V340.032Zm12,12H970.018V340.576h11.454Z" transform="translate(-573.44 -248.388)" fill="#3f3d56"/>
    <path id="Path_21" data-name="Path 21" d="M964.393,521.477v16.077a11.879,11.879,0,0,1-11.878,11.88h-58.5a11.878,11.878,0,0,1-11.876-11.878V456.492l49.288,38.939.844.666,9.168,7.241.856.679Z" transform="translate(-522.935 -315.732)" opacity="0.1"/>
    <circle id="Ellipse_5" data-name="Ellipse 5" cx="18.501" cy="18.501" r="18.501" transform="translate(376.767 191.821)" fill="#f2f2f2"/>
    <path id="Path_22" data-name="Path 22" d="M300.277,676.654a36.691,36.691,0,1,1,36.691-36.691A36.691,36.691,0,0,1,300.277,676.654Zm0-72.538a35.847,35.847,0,1,0,35.847,35.847,35.847,35.847,0,0,0-35.847-35.847Z" transform="translate(-165.249 -400.61)" fill="#3f3d56"/>
    <path id="Path_23" data-name="Path 23" d="M948.781,591.663a23.2,23.2,0,1,1,23.2-23.2A23.2,23.2,0,0,1,948.781,591.663Zm0-45.547a22.352,22.352,0,1,0,22.352,22.352,22.352,22.352,0,0,0-22.352-22.352Z" transform="translate(-548.061 -367.071)" fill="#3f3d56"/>
  </g>
</svg>
