<?xml version="1.0" encoding="utf-8"?>
<!-- Generator: Adobe Illustrator 25.0.0, SVG Export Plug-In . SVG Version: 6.00 Build 0)  -->
<svg version="1.1" id="logo-tom-allain" xmlns="http://www.w3.org/2000/svg" xmlns:xlink="http://www.w3.org/1999/xlink" x="0px"
	 y="0px" viewBox="0 0 461.1 80" style="enable-background:new 0 0 461.1 80;" xml:space="preserve">
<style type="text/css">
	.st0{fill:#FF8A16;}
	.st1{fill:#FFFFFF;}
</style>
<polygon id="bg-orange" class="st0" points="198,80 0,80 0,0 230,0 "/>
<g id="name-text">
	<path class="st1" d="M46.3,65.5h-6V19.5H24v-5.3h38.5v5.3H46.3V65.5z"/>
	<path class="st1" d="M114.9,39.8c0,8.2-2.1,14.7-6.2,19.4c-4.2,4.7-9.9,7.1-17.3,7.1c-7.6,0-13.4-2.3-17.5-7s-6.2-11.2-6.2-19.5
		c0-8.4,2.1-14.8,6.2-19.5c4.1-4.6,10-6.9,17.6-6.9c7.4,0,13.1,2.3,17.3,7S114.9,31.5,114.9,39.8z M73.9,39.8c0,7,1.5,12.2,4.4,15.8
		S85.6,61,91.3,61c5.7,0,10-1.8,12.9-5.4c2.9-3.6,4.4-8.9,4.4-15.9c0-6.9-1.4-12.2-4.3-15.7s-7.2-5.4-12.9-5.4c-5.7,0-10,1.8-13,5.4
		S73.9,32.9,73.9,39.8z"/>
	<path class="st1" d="M149.1,65.5L131.6,20h-0.3c0.3,3.6,0.5,7.9,0.5,12.9v32.7h-5.5V14.1h9l16.2,42.4h0.3l16.4-42.4h8.9v51.4h-6
		V32.4c0-3.8,0.2-7.9,0.5-12.4h-0.3l-17.5,45.5H149.1z"/>
	<path class="st0" d="M267.4,65.5L261,49.2h-20.6L234,65.5h-6l20.3-51.6h5l20.3,51.6H267.4z M259.1,43.8l-6-15.9
		c-0.8-2-1.6-4.5-2.4-7.4c-0.6,2.5-1.3,5-2.2,7.4l-6.1,15.9H259.1z"/>
	<path class="st0" d="M280.6,65.5V14.1h6v46h22.7v5.4L280.6,65.5z"/>
	<path class="st0" d="M318,65.5V14.1h6v46h22.7v5.4L318,65.5z"/>
	<path class="st0" d="M387.7,65.5l-6.4-16.3h-20.6l-6.3,16.3h-6l20.3-51.6h5l20.2,51.6H387.7z M379.4,43.8l-6-15.9
		c-0.8-2-1.6-4.5-2.4-7.4c-0.6,2.5-1.3,5-2.2,7.4l-6,15.9H379.4z"/>
	<path class="st0" d="M400.9,65.5V14.1h6v51.4H400.9z"/>
	<path class="st0" d="M461.1,65.5h-6.8l-28.1-43.1H426c0.4,5.1,0.6,9.7,0.6,13.9v29.2H421V14.1h6.8l28,43h0.2c0-0.6-0.1-2.7-0.3-6.1
		s-0.2-5.9-0.2-7.4V14.1h5.6L461.1,65.5z"/>
</g>
</svg>
